Genre:Action | Adventure | Thriller
Language:English
 
http://www.imdb.com/title/tt1229238/

Source:Russian PROPER/NightMareZ Thanks!

Format : AVI
Format/Info : Audio Video Interleave
File size : 1.05 GiB
Duration : 2h 4mn
Overall bit rate : 1 198 Kbps

Video
ID : 0
Format : MPEG-4 Visual
Format profile : Advanced Simple@L5
Format settings, BVOP : Yes
Format settings, QPel : No
Format settings, GMC : No warppoints
Format settings, Matrix : Default (H.263)
Codec ID : XVID
Codec ID/Hint : XviD
Duration : 2h 4mn
Bit rate : 996 Kbps
Width : 640 pixels
Height : 280 pixels
Display aspect ratio : 2.25:1
Frame rate : 25.000 fps
Color space : YUV
Chroma subsampling : 4:2:0
Bit depth : 8 bits
Scan type : Progressive
Bits/(Pixel*Frame) : 0.222
Stream size : 890 MiB (83%)
Writing library : XviD 1.2.1 (UTC 2008-12-04)

Audio
ID : 1
Format : AC-3
Format/Info : Audio Coding 3
Mode extension : CM (complete main)
Codec ID : 2000
Duration : 2h 4mn
Bit rate mode : Constant
Bit rate : 192 Kbps
Channel(s) : 2 channels
Channel positions : Front: L R
Sampling rate : 48.0 KHz
Bit depth : 16 bits
Stream size : 172 MiB (16%)
Alignment : Aligned on interleaves
Interleave, duration : 40 ms (1.00 video frame)
Interleave, preload duration : 512 ms


Plot:
The IMF is shut down when it's implicated in the bombing of the Kremlin, causing Ethan Hunt and his new team to go rogue to clear their organization's name
 
http://img714.imageshack.us/img714/1795/vlcsnap00004nt.png
 
http://img100.imageshack.us/img100/6563/vlcsnap00002nr.png
 
http://img542.imageshack.us/img542/7429/vlcsnap00001z.png
 
http://img64.imageshack.us/img64/3164/vlcsnap00003a.png